<svg xmlns="http://www.w3.org/2000/svg" id="Layer_1" data-name="Layer 1" viewBox="60 170 100 250" width="100" height="100">
    <defs>
        <style>.cls-1{fill:#831618}</style>
    </defs>
    <path class="cls-1" d="M113.71,338.11c-5.86,25.15-9.3,32.73-15.85,32.73-7.58,0-7.24-11.72,6.2-74.08,13.09-61.67,16.88-72,24.46-72,6.55,0,6.55,7.92,1,36.51H195c9.3-49.26-6.21-83.72-62.71-83.72-49.61,0-76.14,21.71-95.77,116.46-18.27,87.85-6.2,124.71,59.94,124.71,60.29,0,73.38-36.17,84.41-80.61Z"/>
    <path class="cls-1" d="M113.71,338.11c-5.86,25.15-9.3,32.73-15.85,32.73-7.58,0-7.24-11.72,6.2-74.08,13.09-61.67,16.88-72,24.46-72,6.55,0,6.55,7.92,1,36.51H195c9.3-49.26-6.21-83.72-62.71-83.72-49.61,0-76.14,21.71-95.77,116.46-18.27,87.85-6.2,124.71,59.94,124.71,60.29,0,73.38-36.17,84.41-80.61Z"/>
</svg>