<svg id="Layer_1" data-name="Layer 1" xmlns="http://www.w3.org/2000/svg" viewBox="0 0 1224 792"><defs><style>.cls-1{fill:#fff;}</style></defs><polygon class="cls-1" points="719.96 530.62 735.33 530.62 727.64 509.52 719.96 530.62"/><polygon class="cls-1" points="409.67 530.62 425.04 530.62 417.35 509.52 409.67 530.62"/><path class="cls-1" d="M346,502.81h-12.2v18.05H346c7,0,10.13-3.53,10.13-9S352.93,502.81,346,502.81Z"/><path class="cls-1" d="M10.57,439.81H9.32c-17.53,99.35,8.55,172.6,154.28,172.6l971.27,2,39.45-172.22ZM91.93,561.25H72.29V486.34H91.93Zm76.75,0H152.82l-31.36-43.8v43.8H102.55V486.34h18.3l28.92,41.23V486.34h18.91Zm33.44,1.22c-10,0-19-2.81-24.53-6.1V538.31c6.47,4.39,15.62,7.81,24,7.81,6.22,0,11.59-1.34,11.59-6,0-3.66-2.32-4.88-6.34-6.34l-11.35-3.3C183,526.84,176,520.62,176,508.17c0-14.88,12.56-23.06,28.3-23.06,10.13,0,17.33,2.2,23.55,5.62v18.06a39.11,39.11,0,0,0-22.69-7.45c-5.61,0-9.88,1.59-9.88,5.37,0,3.42,2.31,4.76,6.22,6l11.34,3.41c13.67,4.28,19.89,11.47,19.89,22.94C232.74,555.27,219,562.47,202.12,562.47Zm102.49-31.72c0,20.49-12.81,31.72-32.58,31.72s-32.7-11.23-32.7-31.85V486.34h19.52v42.58c0,10.61,5,16.1,13.18,16.1s13.06-5.49,13.06-16.1V486.34h19.52Zm51.61,30.5L340.6,536.48h-6.83v24.77h-19.4V486.34h33.68c16.1,0,27.2,9.14,27.2,25.49,0,11.35-5.73,19.16-14.88,22.58l17.57,26.84Zm80,0-5.37-14.52H403.69l-5.25,14.52H379l28.55-74.91h20l28.55,74.91Zm91.87,0H512.28l-31.35-43.8v43.8H462V486.34h18.31l28.92,41.23V486.34h18.9Zm65.16-52a28,28,0,0,0-17.45-6.1c-12.44,0-20.37,7.69-20.37,20.62s7.93,20.5,20.37,20.5a27.75,27.75,0,0,0,17.45-6v19c-4.76,3.18-11.1,5.13-19,5.13-22.82,0-38.43-15.38-38.43-38.68s15.61-38.68,38.43-38.68c7.93,0,14.27,2,19,5.13Zm63-6.1H622v11.71h31.36v16.47H622v12.94h34.28v17H602.7V486.34h53.56Zm90.3,58.08-5.37-14.52H714l-5.25,14.52h-19.4l28.55-74.91h20l28.55,74.91Zm84.31-8.79c-7.56,7-17.2,10-27.57,10-23.43,0-38.07-15.86-38.07-38.44,0-23.54,16.23-38.92,40-38.92,8.3,0,16.23,2.32,21.72,5.86v19a35.54,35.54,0,0,0-21.72-6.83c-12,0-20.37,7.93-20.37,20.86,0,12.7,7.68,21,19,21,3.9,0,7.19-.85,9.64-2.68V535H802.69V519.4h28.18Zm62.84-49.29H859.42v11.71h31.36v16.47H859.42v12.94h34.29v17H840.15V486.34h53.56ZM969,561.25H953.13l-31.36-43.8v43.8H902.86V486.34h18.31l28.91,41.23V486.34H969Zm65.16-52a27.94,27.94,0,0,0-17.44-6.1c-12.45,0-20.38,7.69-20.38,20.62s7.93,20.5,20.38,20.5a27.74,27.74,0,0,0,17.44-6v19c-4.76,3.18-11.1,5.13-19,5.13-22.82,0-38.43-15.38-38.43-38.68s15.61-38.68,38.43-38.68c7.93,0,14.27,2,19,5.13Zm50.27,25.38v26.6h-19.64v-26.6l-26.6-48.31h21.23l15.74,29.28,15.74-29.28h20.62Z"/><path class="cls-1" d="M113.71,338.11c-5.86,25.15-9.3,32.73-15.85,32.73-7.58,0-7.24-11.72,6.2-74.08,13.09-61.67,16.88-72,24.46-72,6.55,0,6.55,7.92,1,36.51H195c9.3-49.26-6.21-83.72-62.71-83.72-49.61,0-76.14,21.71-95.77,116.46-18.27,87.85-6.2,124.71,59.94,124.71,60.29,0,73.38-36.17,84.41-80.61Z"/><path class="cls-1" d="M246.71,182,164,414.25h68.56l13.09-45.83h22.73l-4.82,45.83h67.19L346.28,182Zm26.18,136.78H262.21c6.89-29.28,16.54-67.53,21.37-87.16h2.06C283.23,249.22,277.72,290.56,272.89,318.81Z"/><polygon class="cls-1" points="387.29 182.03 338.03 414.25 404.86 414.25 454.13 182.03 387.29 182.03"/><path class="cls-1" d="M558.87,182l-2.76,13.44c-5.51,25.84-13.44,78.9-17.91,112h-2.07c.34-8.61.34-34.11.34-125.41h-71L416.24,414.25h58.91l2.76-13.1c6.54-31.35,16.88-92.33,20.67-119.2H501c0,8.27,0,31-3.45,132.3h72.35L619.16,182Z"/><path class="cls-1" d="M685.32,278.15,675,324.67H687L682.91,344c-3.45,16.19-6.89,25.15-15.16,25.15-10.68,0-9-19.29,3.44-73.73,13.79-61,17.92-70.28,26.19-70.28,9.3,0,7.58,10,3.44,30.66H767c6.89-43.75-9-78.21-66.15-78.21-49.27,0-77.86,23.09-97.5,115.42-19.29,89.58-4.13,125.75,38.59,125.75,23.08,0,34.45-6.89,46.17-23.77-.69,4.82-1.73,16.54-1,19.3H733.9l28.94-136.1Z"/><polygon class="cls-1" points="820.04 363.6 858.63 182.03 791.79 182.03 742.52 414.25 872.07 414.25 883.09 363.6 820.04 363.6"/><polygon class="cls-1" points="958.55 364.98 968.2 319.85 1025.73 319.85 1036.07 270.23 978.53 270.23 986.8 231.65 1047.1 231.65 1057.77 182.03 949.62 182.03 930.99 182.03 869.53 182.03 858.21 231.65 920.46 231.65 881.72 414.25 1046.23 414.25 1056.75 364.98 958.55 364.98"/><polygon class="cls-1" points="1068.46 182.03 1057.78 231.65 1095.33 231.65 1056.75 414.25 1123.24 414.25 1161.83 231.65 1207.54 231.65 1219.47 182.03 1068.46 182.03"/></svg>